<svg width="16" height="16" viewBox="0 0 16 16" fill="none" xmlns="http://www.w3.org/2000/svg">
<path d="M8 15C7.92766 14.9995 7.8562 14.9841 7.79 14.955C7.70321 14.9148 7.62976 14.8506 7.57836 14.7699C7.52696 14.6893 7.49976 14.5956 7.5 14.5V9.20496L4.205 12.5L3.5 11.795L7.295 7.99996L3.5 4.20496L4.205 3.49996L7.5 6.79496V1.49996C7.49976 1.40433 7.52696 1.31063 7.57836 1.22999C7.62976 1.14934 7.70321 1.08513 7.79 1.04496C7.87699 1.00491 7.97366 0.990692 8.0685 1.00399C8.16334 1.01728 8.25237 1.05754 8.325 1.11996L11.825 4.11996C11.8799 4.16691 11.9239 4.22518 11.9542 4.29078C11.9844 4.35638 12 4.42774 12 4.49996C12.0031 4.5691 11.9918 4.63813 11.9669 4.70268C11.9419 4.76723 11.9038 4.82589 11.855 4.87496L8.705 7.99996L11.855 11.145C11.9013 11.1917 11.938 11.2471 11.9629 11.308C11.9878 11.3689 12.0004 11.4342 12 11.5C11.9972 11.5688 11.9802 11.6363 11.9501 11.6982C11.92 11.7602 11.8774 11.8152 11.825 11.86L8.325 14.86C8.23735 14.9447 8.12178 14.9945 8 15ZM8.5 9.20496V13.415L10.765 11.47L8.5 9.20496ZM8.5 2.58496V6.79496L10.765 4.52996L8.5 2.58496Z" fill="#161616"/>
</svg>
