<svg width="16" height="16" viewBox="0 0 16 16" fill="none" xmlns="http://www.w3.org/2000/svg">
<path d="M4.59 9.28493C4.5321 9.02722 4.50193 8.76405 4.5 8.49993V6.99993H3.5V8.49993C3.49812 9.04325 3.59643 9.58226 3.79 10.0899L4.59 9.28493Z" fill="#161616"/>
<path d="M6.5 7.49993V3.49993C6.5 3.1021 6.65804 2.72057 6.93934 2.43927C7.22064 2.15796 7.60218 1.99993 8 1.99993C8.39782 1.99993 8.77936 2.15796 9.06066 2.43927C9.34196 2.72057 9.5 3.1021 9.5 3.49993V4.37493L10.5 3.37493C10.4834 2.71189 10.2041 2.08259 9.72357 1.62547C9.24301 1.16835 8.60054 0.920852 7.9375 0.937428C7.27446 0.954004 6.64516 1.23329 6.18804 1.71385C5.73092 2.19442 5.48342 2.83689 5.5 3.49993V7.49993H6.5Z" fill="#161616"/>
<path d="M11.5 8.49993C11.498 9.17835 11.299 9.84159 10.927 10.4089C10.555 10.9763 10.0261 11.4233 9.40474 11.6956C8.78335 11.9679 8.09622 12.0537 7.42695 11.9426C6.75768 11.8316 6.13511 11.5284 5.635 11.0699L6.345 10.3649C6.70516 10.683 7.14937 10.8906 7.62446 10.9628C8.09954 11.035 8.58536 10.9687 9.02376 10.772C9.46216 10.5752 9.83455 10.2562 10.0964 9.85328C10.3582 9.45033 10.4983 8.98046 10.5 8.49993V6.20993L15 1.70993L14.295 0.999928L1 14.2949L1.705 14.9999L4.925 11.7799C5.63075 12.4466 6.53493 12.8644 7.5 12.9699V13.9999H5.5V14.9999H10.5V13.9999H8.5V12.9699C9.59968 12.847 10.6155 12.3232 11.3534 11.4986C12.0913 10.674 12.4995 9.60646 12.5 8.49993V6.99993H11.5V8.49993ZM9.5 8.49993C9.4989 8.7834 9.4175 9.06076 9.26523 9.29986C9.11296 9.53897 8.89605 9.73003 8.63964 9.85091C8.38323 9.97179 8.09782 10.0175 7.81647 9.98285C7.53513 9.94816 7.26937 9.83446 7.05 9.65493L9.5 7.20993V8.49993Z" fill="#161616"/>
</svg>
