<svg width="16" height="16" viewBox="0 0 16 16" fill="none" xmlns="http://www.w3.org/2000/svg">
<path d="M14 7.99999V11H2V2.99999H5.5V1.99999H2C1.73478 1.99999 1.48043 2.10535 1.29289 2.29289C1.10536 2.48042 1 2.73478 1 2.99999V11C1 11.2652 1.10536 11.5196 1.29289 11.7071C1.48043 11.8946 1.73478 12 2 12H6V14H4V15H12V14H10V12H14C14.2652 12 14.5196 11.8946 14.7071 11.7071C14.8946 11.5196 15 11.2652 15 11V7.99999H14ZM9 14H7V12H9V14Z" fill="#161616"/>
<path d="M9 8.99999H8.995C8.88724 8.99887 8.78272 8.96295 8.69703 8.8976C8.61133 8.83225 8.54905 8.74097 8.51945 8.63734L7.6228 5.49999H5.5V4.49999H8C8.10865 4.49999 8.21434 4.53538 8.30108 4.60081C8.38782 4.66623 8.45089 4.75813 8.48075 4.86259L9.01785 6.74204L10.5223 1.85289C10.5547 1.75131 10.6183 1.66253 10.7041 1.59918C10.7898 1.53582 10.8934 1.50112 11 1.49999C11.1053 1.49843 11.2083 1.53085 11.2938 1.59243C11.3792 1.65402 11.4425 1.74149 11.4743 1.84189L12.3603 4.49999H15V5.49999H12C11.8951 5.49999 11.7928 5.46697 11.7076 5.40561C11.6225 5.34425 11.5588 5.25765 11.5257 5.15809L11.019 3.63809L9.4778 8.64709C9.44635 8.74927 9.38298 8.83867 9.29698 8.90218C9.21099 8.9657 9.1069 8.99998 9 8.99999Z" fill="#161616"/>
</svg>
