<svg width="16" height="16" viewBox="0 0 16 16" fill="none" xmlns="http://www.w3.org/2000/svg">
<path d="M2.5 13.9999C2.36739 13.9999 2.24021 13.9472 2.14645 13.8535C2.05268 13.7597 2 13.6325 2 13.4999V2.49991C1.99999 2.41302 2.02263 2.32763 2.06568 2.25215C2.10873 2.17668 2.17071 2.11372 2.2455 2.0695C2.32029 2.02527 2.40532 2.00129 2.4922 1.99994C2.57908 1.99858 2.66481 2.01989 2.74095 2.06177L12.7409 7.56177C12.8194 7.60491 12.8848 7.66833 12.9304 7.74539C12.976 7.82246 13 7.91036 13 7.99989C13 8.08943 12.976 8.17732 12.9304 8.25439C12.8848 8.33145 12.8194 8.39487 12.7409 8.43801L2.74095 13.938C2.66713 13.9786 2.58425 13.9999 2.5 13.9999ZM3 3.34536V12.6543L11.4624 7.99992L3 3.34536Z" fill="#161616"/>
</svg>
