<svg width="16" height="16" viewBox="0 0 16 16" fill="none" xmlns="http://www.w3.org/2000/svg">
<path d="M10.75 2.87L10.25 3.735C11.2985 4.34037 12.118 5.2748 12.5813 6.39338C13.0447 7.51196 13.126 8.75216 12.8126 9.92164C12.4992 11.0911 11.8087 12.1245 10.8482 12.8616C9.88765 13.5986 8.71074 13.9981 7.5 13.9981C6.28926 13.9981 5.11236 13.5986 4.15181 12.8616C3.19127 12.1245 2.50077 11.0911 2.18741 9.92164C1.87405 8.75216 1.95534 7.51196 2.41866 6.39338C2.88199 5.2748 3.70147 4.34037 4.75 3.735L4.25 2.87C3.01083 3.58544 2.04236 4.68977 1.49479 6.01172C0.947214 7.33368 0.851147 8.79937 1.22148 10.1815C1.59182 11.5636 2.40787 12.7849 3.54305 13.656C4.67824 14.527 6.06913 14.9992 7.5 14.9992C8.93087 14.9992 10.3218 14.527 11.457 13.656C12.5921 12.7849 13.4082 11.5636 13.7785 10.1815C14.1489 8.79937 14.0528 7.33368 13.5052 6.01172C12.9576 4.68977 11.9892 3.58544 10.75 2.87Z" fill="#161616"/>
<path d="M8 1H7V8H8V1Z" fill="#161616"/>
</svg>
