<svg width="16" height="16" viewBox="0 0 16 16" fill="none" xmlns="http://www.w3.org/2000/svg">
<path d="M13.2936 8.36018C13.2936 8.23518 13.2936 8.11018 13.2936 7.98018C13.2936 7.85018 13.2936 7.72518 13.2936 7.59518L14.2536 6.75518C14.4305 6.59921 14.5467 6.3857 14.5814 6.15238C14.6162 5.91907 14.5674 5.68098 14.4436 5.48018L13.2636 3.48018C13.1759 3.32832 13.0498 3.20217 12.898 3.11441C12.7462 3.02666 12.5739 2.98036 12.3986 2.98018C12.2899 2.97935 12.1818 2.99624 12.0786 3.03018L10.8636 3.44018C10.6538 3.30079 10.435 3.17551 10.2086 3.06518L9.95358 1.80518C9.90786 1.57499 9.78263 1.3682 9.59981 1.22103C9.41699 1.07387 9.18823 0.995687 8.95358 1.00018H6.61358C6.37893 0.995687 6.15018 1.07387 5.96736 1.22103C5.78454 1.3682 5.65931 1.57499 5.61358 1.80518L5.35858 3.06518C5.13055 3.17548 4.91007 3.30076 4.69858 3.44018L3.50858 3.01018C3.40423 2.983 3.29617 2.97286 3.18858 2.98018C3.01322 2.98036 2.84099 3.02666 2.68916 3.11441C2.53734 3.20217 2.41126 3.32832 2.32358 3.48018L1.14358 5.48018C1.02688 5.68068 0.983509 5.91551 1.02091 6.14447C1.05831 6.37342 1.17414 6.58225 1.34858 6.73518L2.29358 7.60018C2.29358 7.72518 2.29358 7.85018 2.29358 7.98018C2.29358 8.11018 2.29358 8.23518 2.29358 8.36518L1.34858 9.20518C1.16922 9.35918 1.05021 9.57175 1.01268 9.80516C0.975154 10.0386 1.02153 10.2777 1.14358 10.4802L2.32358 12.4802C2.41126 12.6321 2.53734 12.7582 2.68916 12.846C2.84099 12.9337 3.01322 12.98 3.18858 12.9802C3.29726 12.981 3.40534 12.9641 3.50858 12.9302L4.72358 12.5202C4.93335 12.6596 5.15217 12.7849 5.37858 12.8952L5.63358 14.1552C5.67931 14.3854 5.80454 14.5922 5.98736 14.7393C6.17018 14.8865 6.39893 14.9647 6.63358 14.9602H8.99358C9.22823 14.9647 9.45699 14.8865 9.63981 14.7393C9.82263 14.5922 9.94786 14.3854 9.99358 14.1552L10.2486 12.8952C10.4766 12.7849 10.6971 12.6596 10.9086 12.5202L12.1186 12.9302C12.2218 12.9641 12.3299 12.981 12.4386 12.9802C12.6139 12.98 12.7862 12.9337 12.938 12.846C13.0898 12.7582 13.2159 12.6321 13.3036 12.4802L14.4436 10.4802C14.5603 10.2797 14.6037 10.0449 14.5663 9.8159C14.5289 9.58695 14.413 9.37812 14.2386 9.22518L13.2936 8.36018ZM12.3986 11.9802L10.6836 11.4002C10.2821 11.7402 9.82328 12.0061 9.32858 12.1852L8.97358 13.9802H6.61358L6.25858 12.2052C5.76779 12.021 5.31144 11.7556 4.90858 11.4202L3.18858 11.9802L2.00858 9.98018L3.36858 8.78018C3.27613 8.26261 3.27613 7.73275 3.36858 7.21518L2.00858 5.98018L3.18858 3.98018L4.90358 4.56018C5.30505 4.22013 5.76389 3.95431 6.25858 3.77518L6.61358 1.98018H8.97358L9.32858 3.75518C9.81937 3.93939 10.2757 4.20476 10.6786 4.54018L12.3986 3.98018L13.5786 5.98018L12.2186 7.18018C12.311 7.69775 12.311 8.22761 12.2186 8.74518L13.5786 9.98018L12.3986 11.9802Z" fill="#161616"/>
<path d="M7.79358 10.9802C7.20024 10.9802 6.62022 10.8042 6.12687 10.4746C5.63352 10.1449 5.24901 9.67641 5.02194 9.12823C4.79488 8.58006 4.73547 7.97686 4.85123 7.39491C4.96698 6.81297 5.25271 6.27842 5.67226 5.85886C6.09182 5.43931 6.62637 5.15358 7.20831 5.03783C7.79026 4.92207 8.39346 4.98148 8.94163 5.20855C9.48981 5.43561 9.95835 5.82013 10.288 6.31347C10.6176 6.80682 10.7936 7.38684 10.7936 7.98018C10.7976 8.37526 10.7227 8.76717 10.5734 9.13296C10.424 9.49875 10.2032 9.83107 9.92384 10.1104C9.64446 10.3898 9.31215 10.6107 8.94636 10.76C8.58057 10.9093 8.18866 10.9842 7.79358 10.9802ZM7.79358 5.98018C7.52926 5.97403 7.26643 6.02155 7.02099 6.11988C6.77556 6.21821 6.55262 6.3653 6.36566 6.55226C6.1787 6.73922 6.03161 6.96216 5.93328 7.20759C5.83495 7.45303 5.78743 7.71586 5.79358 7.98018C5.78743 8.24451 5.83495 8.50734 5.93328 8.75278C6.03161 8.99821 6.1787 9.22115 6.36566 9.40811C6.55262 9.59507 6.77556 9.74216 7.02099 9.84049C7.26643 9.93882 7.52926 9.98634 7.79358 9.98018C8.05791 9.98634 8.32074 9.93882 8.56617 9.84049C8.81161 9.74216 9.03455 9.59507 9.22151 9.40811C9.40847 9.22115 9.55556 8.99821 9.65389 8.75278C9.75222 8.50734 9.79974 8.24451 9.79358 7.98018C9.79974 7.71586 9.75222 7.45303 9.65389 7.20759C9.55556 6.96216 9.40847 6.73922 9.22151 6.55226C9.03455 6.3653 8.81161 6.21821 8.56617 6.11988C8.32074 6.02155 8.05791 5.97403 7.79358 5.98018Z" fill="#161616"/>
</svg>
