<svg width="16" height="16" viewBox="0 0 16 16" fill="none" xmlns="http://www.w3.org/2000/svg">
<path d="M13.58 4.0354L12.815 4.6804C13.6009 5.61137 14.0199 6.79726 13.9932 8.01531C13.9665 9.23337 13.496 10.3998 12.67 11.2954L13.405 11.9954C14.3968 10.9206 14.962 9.52062 14.9942 8.0585C15.0264 6.59637 14.5235 5.17282 13.58 4.0554V4.0354Z" fill="#161616"/>
<path d="M10.79 5.9954C11.2614 6.55441 11.5124 7.26635 11.4959 7.99742C11.4793 8.72848 11.1963 9.42833 10.7 9.9654L11.435 10.6454C12.0964 9.92858 12.4732 8.99479 12.4944 8.01966C12.5155 7.04452 12.1797 6.09526 11.55 5.3504L10.79 5.9954Z" fill="#161616"/>
<path d="M9 14.9954C8.93385 14.9951 8.86841 14.9817 8.80747 14.956C8.74653 14.9302 8.69131 14.8926 8.645 14.8454L4.835 10.9954H1.5C1.36739 10.9954 1.24021 10.9427 1.14645 10.849C1.05268 10.7552 1 10.628 1 10.4954V5.4954C1 5.36279 1.05268 5.23561 1.14645 5.14184C1.24021 5.04808 1.36739 4.9954 1.5 4.9954H4.835L8.645 1.1454C8.73868 1.05227 8.86541 1 8.9975 1C9.12959 1 9.25632 1.05227 9.35 1.1454C9.44421 1.23771 9.49812 1.36351 9.5 1.4954V14.4954C9.5 14.628 9.44732 14.7552 9.35355 14.849C9.25979 14.9427 9.13261 14.9954 9 14.9954ZM2 9.9954H5.04C5.10615 9.99567 5.17159 10.0091 5.23253 10.0348C5.29347 10.0606 5.34869 10.0982 5.395 10.1454L8.5 13.2804V2.7104L5.395 5.8454C5.34869 5.89264 5.29347 5.93023 5.23253 5.95597C5.17159 5.98172 5.10615 5.99512 5.04 5.9954H2V9.9954Z" fill="#161616"/>
</svg>
