<svg width="16" height="16" viewBox="0 0 16 16" fill="none" xmlns="http://www.w3.org/2000/svg">
<path d="M10.8715 9.34604C11.0697 9.18782 11.2473 9.00528 11.4 8.80274C11.6748 8.43702 11.8623 8.01328 11.9481 7.56395C12.0339 7.11462 12.0158 6.65161 11.8951 6.21036C11.7745 5.76911 11.5545 5.36131 11.2519 5.01817C10.9494 4.67503 10.5724 4.40565 10.1498 4.23064C9.7271 4.05563 9.27001 3.97964 8.81347 4.00847C8.35693 4.0373 7.91303 4.17019 7.51575 4.39698C7.11848 4.62377 6.77835 4.93844 6.5214 5.31691C6.26445 5.69538 6.09749 6.12762 6.0333 6.58054C5.37362 6.71182 4.76094 7.01681 4.25854 7.46403C3.75613 7.91124 3.38221 8.48446 3.1754 9.12449C2.47988 9.32263 1.87949 9.76563 1.48501 10.3718C1.09054 10.9779 0.928593 11.7062 1.02906 12.4224C1.12953 13.1386 1.48564 13.7943 2.03167 14.2684C2.5777 14.7426 3.27681 15.0033 4 15.0024H9.5C10.1723 15.0041 10.8256 14.7793 11.3546 14.3643C11.8835 13.9493 12.2573 13.3683 12.4158 12.715C12.5742 12.0616 12.508 11.3739 12.2278 10.7627C11.9477 10.1515 11.4699 9.6525 10.8715 9.34604ZM9 5.00244C9.53026 5.003 10.0386 5.21389 10.4136 5.58884C10.7886 5.96379 10.9994 6.47218 11 7.00244C11.0013 7.43531 10.8608 7.8567 10.6 8.20214C10.4685 8.37524 10.3098 8.52582 10.13 8.64799C9.84633 8.05917 9.41449 7.55418 8.87682 7.18257C8.33915 6.81095 7.71413 6.58547 7.06305 6.52824C7.16889 6.094 7.41719 5.70775 7.76829 5.43118C8.11939 5.1546 8.55305 5.00366 9 5.00244ZM9.5 14.0024H4C3.49897 14.0036 3.01583 13.8163 2.6465 13.4777C2.27716 13.1391 2.04863 12.6741 2.00627 12.1748C1.96391 11.6756 2.11081 11.1787 2.41782 10.7827C2.72483 10.3868 3.16949 10.1208 3.66355 10.0374L3.995 9.98144L4.0678 9.65334C4.20361 9.04323 4.54336 8.49764 5.031 8.10662C5.51863 7.7156 6.125 7.50251 6.75005 7.50251C7.37509 7.50251 7.98147 7.7156 8.4691 8.10662C8.95673 8.49764 9.29649 9.04323 9.4323 9.65334L9.5055 9.98144L9.8366 10.0376C10.3305 10.1211 10.7749 10.3872 11.0817 10.7831C11.3886 11.179 11.5353 11.6758 11.493 12.1749C11.4506 12.674 11.2222 13.1389 10.853 13.4775C10.4838 13.816 10.0009 14.0034 9.5 14.0024Z" fill="#161616"/>
<path d="M15 6.50244H13V7.50244H15V6.50244Z" fill="#161616"/>
<path d="M12.8892 2.40633L11.475 3.82051L12.1821 4.52754L13.5963 3.11337L12.8892 2.40633Z" fill="#161616"/>
<path d="M9.5 1.00244H8.5V3.00244H9.5V1.00244Z" fill="#161616"/>
<path d="M5.11084 2.40623L4.40381 3.11327L5.81813 4.52759L6.52516 3.82055L5.11084 2.40623Z" fill="#161616"/>
</svg>
