<svg width="16" height="16" viewBox="0 0 16 16" fill="none" xmlns="http://www.w3.org/2000/svg">
<path d="M11.749 11H4.24895C3.44716 10.995 2.67554 10.6937 2.08245 10.1541C1.48935 9.61449 1.11666 8.87471 1.03602 8.07697C0.955375 7.27922 1.17247 6.47982 1.64558 5.83246C2.11868 5.18509 2.81439 4.73547 3.59895 4.57003C3.81481 3.56329 4.36937 2.66102 5.17011 2.01376C5.97085 1.36651 6.96933 1.01343 7.99895 1.01343C9.02857 1.01343 10.0271 1.36651 10.8278 2.01376C11.6285 2.66102 12.1831 3.56329 12.399 4.57003C13.1835 4.73547 13.8792 5.18509 14.3523 5.83246C14.8254 6.47982 15.0425 7.27922 14.9619 8.07697C14.8812 8.87471 14.5085 9.61449 13.9155 10.1541C13.3224 10.6937 12.5507 10.995 11.749 11ZM7.99895 2.00003C7.14576 2.00088 6.32227 2.31334 5.68327 2.87868C5.04427 3.44402 4.63377 4.2233 4.52895 5.07003L4.49895 5.50003H4.06895C3.47222 5.5239 2.9094 5.78384 2.50432 6.22268C2.09924 6.66151 1.88508 7.24329 1.90895 7.84003C1.93282 8.43677 2.19277 8.99958 2.6316 9.40466C3.07044 9.80974 3.65222 10.0239 4.24895 10H11.749C12.3457 10.0239 12.9275 9.80974 13.3663 9.40466C13.8051 8.99958 14.0651 8.43677 14.089 7.84003C14.1128 7.24329 13.8987 6.66151 13.4936 6.22268C13.0885 5.78384 12.5257 5.5239 11.929 5.50003H11.499L11.449 5.09003C11.3491 4.24309 10.9434 3.46175 10.3081 2.89278C9.67288 2.3238 8.85174 2.00634 7.99895 2.00003Z" fill="#161616"/>
<path d="M6.99895 15C6.92051 15.001 6.84311 14.982 6.77395 14.945C6.65619 14.8851 6.56694 14.781 6.52572 14.6554C6.4845 14.5299 6.49465 14.3931 6.55395 14.275L7.55395 12.275C7.58038 12.2116 7.61962 12.1542 7.66922 12.1066C7.71881 12.059 7.77769 12.0221 7.84219 11.9983C7.90668 11.9744 7.97539 11.9641 8.04404 11.9681C8.11268 11.972 8.17978 11.99 8.24114 12.021C8.3025 12.0521 8.3568 12.0954 8.40065 12.1484C8.4445 12.2013 8.47696 12.2628 8.49599 12.3288C8.51503 12.3949 8.52023 12.4642 8.51127 12.5324C8.50232 12.6005 8.4794 12.6661 8.44395 12.725L7.44395 14.725C7.4024 14.8075 7.33883 14.8768 7.26028 14.9254C7.18174 14.9739 7.09129 14.9998 6.99895 15Z" fill="#161616"/>
<path d="M9.99895 15C9.92051 15.001 9.84311 14.982 9.77395 14.945C9.65619 14.8851 9.56694 14.781 9.52572 14.6554C9.4845 14.5299 9.49465 14.3931 9.55395 14.275L10.554 12.275C10.5804 12.2116 10.6196 12.1542 10.6692 12.1066C10.7188 12.059 10.7777 12.0221 10.8422 11.9983C10.9067 11.9744 10.9754 11.9641 11.044 11.9681C11.1127 11.972 11.1798 11.99 11.2411 12.021C11.3025 12.0521 11.3568 12.0954 11.4007 12.1484C11.4445 12.2013 11.477 12.2628 11.496 12.3288C11.515 12.3949 11.5202 12.4642 11.5113 12.5324C11.5023 12.6005 11.4794 12.6661 11.444 12.725L10.444 14.725C10.4024 14.8075 10.3388 14.8768 10.2603 14.9254C10.1817 14.9739 10.0913 14.9998 9.99895 15Z" fill="#161616"/>
<path d="M3.99895 15C3.92051 15.001 3.84311 14.982 3.77395 14.945C3.65619 14.8851 3.56694 14.781 3.52572 14.6554C3.4845 14.5299 3.49465 14.3931 3.55395 14.275L4.55395 12.275C4.58038 12.2116 4.61962 12.1542 4.66922 12.1066C4.71881 12.059 4.77769 12.0221 4.84219 11.9983C4.90668 11.9744 4.97539 11.9641 5.04404 11.9681C5.11268 11.972 5.17978 11.99 5.24114 12.021C5.3025 12.0521 5.3568 12.0954 5.40065 12.1484C5.4445 12.2013 5.47696 12.2628 5.49599 12.3288C5.51503 12.3949 5.52023 12.4642 5.51127 12.5324C5.50232 12.6005 5.4794 12.6661 5.44395 12.725L4.44395 14.725C4.4024 14.8075 4.33883 14.8768 4.26029 14.9254C4.18174 14.9739 4.09129 14.9998 3.99895 15Z" fill="#161616"/>
</svg>
