<svg width="16" height="16" viewBox="0 0 16 16" fill="none" xmlns="http://www.w3.org/2000/svg">
<path d="M15.0002 7.75023C14.9967 7.0024 14.7366 6.27844 14.2634 5.69931C13.7903 5.12018 13.1327 4.72095 12.4006 4.56833C12.1876 3.55919 11.6341 2.65395 10.833 2.00433C10.0319 1.3547 9.03188 1.00018 8.00049 1.00018C6.9691 1.00018 5.96905 1.3547 5.16795 2.00433C4.36686 2.65395 3.8134 3.55919 3.60034 4.56833C2.86815 4.72085 2.21049 5.12003 1.73726 5.69918C1.26402 6.27832 1.00389 7.00234 1.00034 7.75023C1.00069 8.55516 1.30184 9.33091 1.84469 9.92523C1.4348 10.3476 1.15862 10.8815 1.05071 11.4601C0.942801 12.0387 1.00796 12.6362 1.23804 13.1779C1.46812 13.7197 1.85288 14.1815 2.34417 14.5056C2.83546 14.8297 3.41143 15.0017 3.99999 15H9.49999C9.98503 15.0019 10.4633 14.8857 10.8934 14.6615C11.3234 14.4372 11.6925 14.1116 11.9686 13.7128C12.2447 13.3141 12.4196 12.854 12.4782 12.3725C12.5367 11.891 12.4772 11.4025 12.3047 10.9492C13.0585 10.8182 13.742 10.4256 14.235 9.84054C14.728 9.25546 14.9989 8.51532 15.0002 7.75023ZM9.49999 14H3.99999C3.49909 14.001 3.01613 13.8136 2.64693 13.4751C2.27772 13.1366 2.04927 12.6717 2.0069 12.1726C1.96454 11.6735 2.11135 11.1767 2.41821 10.7808C2.72507 10.3849 3.16954 10.1188 3.66344 10.0354L3.99499 9.97898L4.06789 9.65088C4.2037 9.04075 4.54347 8.49514 5.03112 8.1041C5.51877 7.71306 6.12517 7.49996 6.75024 7.49996C7.37531 7.49996 7.98171 7.71306 8.46936 8.1041C8.95701 8.49514 9.29678 9.04075 9.43259 9.65088L9.50549 9.97898L9.83679 10.0354C10.3307 10.1188 10.7752 10.3849 11.0821 10.7808C11.3889 11.1768 11.5357 11.6736 11.4933 12.1727C11.4509 12.6718 11.2224 13.1368 10.8532 13.4753C10.4839 13.8138 10.0009 14.001 9.49999 14ZM11.75 9.99998H11.7223C11.3484 9.58136 10.8638 9.27693 10.3243 9.12179C10.0849 8.36133 9.60919 7.69705 8.96634 7.22549C8.32349 6.75394 7.547 6.49968 6.74974 6.49968C5.95248 6.49968 5.176 6.75394 4.53314 7.22549C3.89029 7.69705 3.41458 8.36133 3.17514 9.12179C2.99729 9.17357 2.82464 9.24174 2.65939 9.32543C2.45104 9.11932 2.28552 8.87404 2.17235 8.6037C2.05918 8.33336 2.00061 8.0433 1.99999 7.75023C2.00258 7.18531 2.21678 6.64186 2.60035 6.2271C2.98391 5.81234 3.50899 5.55639 4.07199 5.50973L4.47974 5.47778L4.52929 5.07178C4.63311 4.22433 5.04339 3.44413 5.68277 2.8783C6.32215 2.31247 7.14644 2.00011 8.00024 2.00011C8.85404 2.00011 9.67833 2.31247 10.3177 2.8783C10.9571 3.44413 11.3674 4.22433 11.4712 5.07178L11.5205 5.47778L11.9282 5.50973C12.5075 5.55555 13.0466 5.82385 13.4324 6.2584C13.8183 6.69294 14.0209 7.25999 13.9979 7.84065C13.9748 8.42132 13.7279 8.97052 13.3088 9.37313C12.8898 9.77573 12.3311 10.0002 11.75 9.99998Z" fill="#161616"/>
</svg>
