<svg width="16" height="16" viewBox="0 0 16 16" fill="none" xmlns="http://www.w3.org/2000/svg">
<rect width="16" height="16" fill="white" fill-opacity="0.01"/>
<path d="M6.6691 15.0001L5.8011 14.5001L6.9446 12.5001H5.0001L6.9966 9.00009L7.8651 9.50009L6.7231 11.5001H8.6686L6.6691 15.0001Z" fill="#161616"/>
<path d="M14.9221 6.51744C14.8659 6.39806 14.7796 6.29537 14.6717 6.21946C14.5638 6.14356 14.4379 6.09706 14.3066 6.08454C13.6523 6.0176 13.0455 5.71223 12.6019 5.22664C12.2212 4.79855 11.961 4.27697 11.8481 3.71529C11.7353 3.15362 11.7737 2.57203 11.9594 2.03009C12.003 1.89923 12.0121 1.75934 11.9858 1.62394C11.9596 1.48854 11.8988 1.3622 11.8094 1.25714C11.7274 1.16045 11.6216 1.08688 11.5024 1.04371C11.3832 1.00054 11.2548 0.989279 11.1299 1.01104L11.1203 1.01299C10.3434 1.18068 9.63565 1.58018 9.09059 2.15868C8.54553 2.73718 8.18884 3.46745 8.06765 4.25299C7.64763 4.0888 7.20105 4.00308 6.7501 4.00009C5.95389 4.00438 5.17941 4.26028 4.53738 4.7312C3.89536 5.20213 3.41865 5.86398 3.1754 6.62214C2.47987 6.82027 1.87948 7.26329 1.485 7.86942C1.09052 8.47556 0.928587 9.20392 1.02907 9.9201C1.12955 10.6363 1.48568 11.292 2.03173 11.7661C2.57777 12.2403 3.2769 12.501 4.0001 12.5001V11.5001C3.49928 11.501 3.01644 11.3136 2.64733 10.9751C2.27823 10.6366 2.04984 10.1717 2.00747 9.6727C1.96509 9.17368 2.11183 8.67696 2.41858 8.28108C2.72532 7.88519 3.16966 7.61907 3.66345 7.53549L3.99495 7.47909L4.06775 7.15099C4.20356 6.54085 4.54333 5.99524 5.03098 5.60421C5.51863 5.21317 6.12503 5.00007 6.7501 5.00007C7.37517 5.00007 7.98156 5.21317 8.46922 5.60421C8.95687 5.99524 9.29663 6.54085 9.43245 7.15099L9.50525 7.47909L9.83655 7.53549C10.3304 7.61893 10.7749 7.885 11.0818 8.28088C11.3886 8.67677 11.5354 9.17355 11.4931 9.67264C11.4507 10.1717 11.2223 10.6367 10.8531 10.9752C10.4839 11.3137 10.001 11.5011 9.5001 11.5001V12.5001C9.9435 12.5035 10.3821 12.4078 10.7838 12.22C11.1854 12.0322 11.5401 11.757 11.8219 11.4146C12.1036 11.0722 12.3054 10.6712 12.4123 10.2409C12.5193 9.81059 12.5288 9.3618 12.4401 8.92734C12.9359 8.83037 13.4071 8.63423 13.8252 8.35069C14.2434 8.06716 14.6 7.70207 14.8735 7.27734C14.947 7.16581 14.99 7.03707 14.9986 6.90382C15.0071 6.77057 14.9807 6.6374 14.9221 6.51744ZM12.0758 7.97639C11.6874 7.3171 11.0606 6.83226 10.3248 6.62214C10.0886 5.88626 9.63097 5.24122 9.0145 4.77509C9.03807 4.19615 9.22856 3.63637 9.56301 3.16322C9.89746 2.69007 10.3616 2.32372 10.8995 2.10834C10.7426 2.77271 10.7488 3.4652 10.9176 4.12664C11.0865 4.78809 11.4129 5.39883 11.8691 5.90669C12.3883 6.47113 13.0701 6.86035 13.8201 7.02059C13.3801 7.5479 12.757 7.88933 12.0758 7.97639Z" fill="#161616"/>
</svg>
