<svg width="16" height="16" viewBox="0 0 16 16" fill="none" xmlns="http://www.w3.org/2000/svg">
<path d="M11.749 11H4.24895C3.44716 10.995 2.67554 10.6937 2.08245 10.1541C1.48935 9.61449 1.11666 8.87471 1.03602 8.07697C0.955375 7.27922 1.17247 6.47982 1.64558 5.83246C2.11868 5.18509 2.81439 4.73547 3.59895 4.57003C3.81481 3.56329 4.36937 2.66102 5.17011 2.01376C5.97085 1.36651 6.96933 1.01343 7.99895 1.01343C9.02857 1.01343 10.0271 1.36651 10.8278 2.01376C11.6285 2.66102 12.1831 3.56329 12.399 4.57003C13.1835 4.73547 13.8792 5.18509 14.3523 5.83246C14.8254 6.47982 15.0425 7.27922 14.9619 8.07697C14.8812 8.87471 14.5085 9.61449 13.9155 10.1541C13.3224 10.6937 12.5507 10.995 11.749 11ZM7.99895 2.00003C7.14576 2.00088 6.32227 2.31334 5.68327 2.87868C5.04427 3.44402 4.63377 4.2233 4.52895 5.07003L4.49895 5.50003H4.06895C3.47222 5.5239 2.9094 5.78384 2.50432 6.22268C2.09924 6.66151 1.88508 7.24329 1.90895 7.84003C1.93282 8.43677 2.19277 8.99958 2.6316 9.40466C3.07044 9.80974 3.65222 10.0239 4.24895 10H11.749C12.3457 10.0239 12.9275 9.80974 13.3663 9.40466C13.8051 8.99958 14.0651 8.43677 14.089 7.84003C14.1128 7.24329 13.8987 6.66151 13.4936 6.22268C13.0885 5.78384 12.5257 5.5239 11.929 5.50003H11.499L11.449 5.09003C11.3491 4.24309 10.9434 3.46175 10.3081 2.89278C9.67288 2.3238 8.85174 2.00634 7.99895 2.00003Z" fill="#161616"/>
<path d="M5.99895 12.525L5.47395 12L4.74895 12.725L4.02395 12L3.49895 12.525L4.22395 13.25L3.49895 13.975L4.02395 14.5L4.74895 13.775L5.47395 14.5L5.99895 13.975L5.27395 13.25L5.99895 12.525Z" fill="#161616"/>
<path d="M12.999 12.525L12.474 12L11.749 12.725L11.024 12L10.499 12.525L11.224 13.25L10.499 13.975L11.024 14.5L11.749 13.775L12.474 14.5L12.999 13.975L12.274 13.25L12.999 12.525Z" fill="#161616"/>
<path d="M9.49895 13.525L8.97395 13L8.24895 13.725L7.52395 13L6.99895 13.525L7.72395 14.25L6.99895 14.975L7.52395 15.5L8.24895 14.775L8.97395 15.5L9.49895 14.975L8.77395 14.25L9.49895 13.525Z" fill="#161616"/>
</svg>
