<svg width="16" height="16" viewBox="0 0 16 16" fill="none" xmlns="http://www.w3.org/2000/svg">
<path d="M11.749 11H11.499V10H11.749C12.3457 10.0239 12.9275 9.80974 13.3663 9.40466C13.8051 8.99958 14.0651 8.43677 14.089 7.84003C14.1128 7.24329 13.8987 6.66151 13.4936 6.22268C13.0885 5.78384 12.5257 5.5239 11.929 5.50003H11.499L11.449 5.09003C11.338 4.24825 10.9249 3.4755 10.2865 2.91572C9.64811 2.35594 8.82801 2.0473 7.97895 2.0473C7.1299 2.0473 6.30979 2.35594 5.67141 2.91572C5.03302 3.4755 4.61988 4.24825 4.50895 5.09003L4.49895 5.50003H4.06895C3.47222 5.5239 2.9094 5.78384 2.50432 6.22268C2.09924 6.66151 1.88508 7.24329 1.90895 7.84003C1.93282 8.43677 2.19277 8.99958 2.6316 9.40466C3.07044 9.80974 3.65222 10.0239 4.24895 10H4.49895V11H4.24895C3.44716 10.995 2.67554 10.6937 2.08245 10.1541C1.48935 9.61449 1.11666 8.87471 1.03602 8.07697C0.955375 7.27922 1.17247 6.47982 1.64558 5.83246C2.11868 5.18509 2.81439 4.73547 3.59895 4.57003C3.81481 3.56329 4.36937 2.66102 5.17011 2.01376C5.97085 1.36651 6.96933 1.01343 7.99895 1.01343C9.02857 1.01343 10.0271 1.36651 10.8278 2.01376C11.6285 2.66102 12.1831 3.56329 12.399 4.57003C13.1835 4.73547 13.8792 5.18509 14.3523 5.83246C14.8254 6.47982 15.0425 7.27922 14.9619 8.07697C14.8812 8.87471 14.5085 9.61449 13.9155 10.1541C13.3224 10.6937 12.5507 10.995 11.749 11Z" fill="#161616"/>
<path d="M7.93395 15.25L7.06395 14.75L8.63895 12H5.63895L8.06395 7.75003L8.93395 8.25003L7.35895 11H10.359L7.93395 15.25Z" fill="#161616"/>
</svg>
