<svg width="16" height="16" viewBox="0 0 16 16" fill="none" xmlns="http://www.w3.org/2000/svg">
<path d="M8 13.5C8.55228 13.5 9 13.0523 9 12.5C9 11.9478 8.55228 11.5 8 11.5C7.44772 11.5 7 11.9478 7 12.5C7 13.0523 7.44772 13.5 8 13.5Z" fill="#161616"/>
<path d="M5.235 9.61674L5.9418 10.3233C6.49588 9.79562 7.23146 9.50091 7.9966 9.50004C8.76174 9.49918 9.49798 9.79222 10.0533 10.3186L10.76 9.61184C10.0174 8.89763 9.02682 8.49911 7.99649 8.50004C6.96616 8.50097 5.97632 8.90119 5.235 9.61674Z" fill="#161616"/>
<path d="M3.1145 7.49639L3.8213 8.20314C4.93727 7.11217 6.43566 6.50091 7.99631 6.49998C9.55695 6.49904 11.0561 7.10851 12.1734 8.19814L12.88 7.49149C11.5754 6.21412 9.82198 5.49916 7.99615 5.5001C6.17033 5.50103 4.41779 6.21769 3.1145 7.49639Z" fill="#161616"/>
</svg>
