<svg width="15" height="15" viewBox="0 0 15 15" fill="none" xmlns="http://www.w3.org/2000/svg">
<path d="M9.37461 9.37502V7.96877C9.37461 7.47149 9.17707 6.99458 8.82543 6.64295C8.4738 6.29132 7.99689 6.09377 7.49961 6.09377C7.00233 6.09377 6.52541 6.29132 6.17378 6.64295C5.82215 6.99458 5.62461 7.47149 5.62461 7.96877V9.37502C5.37606 9.37533 5.13779 9.4742 4.96204 9.64995C4.78629 9.8257 4.68742 10.064 4.68711 10.3125V13.125C4.68742 13.3736 4.78629 13.6118 4.96204 13.7876C5.13779 13.9633 5.37606 14.0622 5.62461 14.0625H9.37461C9.62316 14.0622 9.86143 13.9633 10.0372 13.7876C10.2129 13.6118 10.3118 13.3736 10.3121 13.125V10.3125C10.3118 10.064 10.2129 9.8257 10.0372 9.64995C9.86143 9.4742 9.62316 9.37533 9.37461 9.37502ZM6.56211 7.96877C6.56211 7.72013 6.66088 7.48168 6.8367 7.30586C7.01251 7.13005 7.25097 7.03127 7.49961 7.03127C7.74825 7.03127 7.98671 7.13005 8.16252 7.30586C8.33834 7.48168 8.43711 7.72013 8.43711 7.96877V9.37502H6.56211V7.96877ZM5.62461 13.125V10.3125H9.37461V13.125H5.62461Z" fill="#161616"/>
<path d="M2.86133 3.33049L3.52405 3.99312C4.0457 3.47029 4.66537 3.05549 5.34755 2.77247C6.02974 2.48945 6.76105 2.34377 7.49961 2.34377C8.23817 2.34377 8.96948 2.48945 9.65167 2.77247C10.3339 3.05549 10.9535 3.47029 11.4752 3.99312L12.1378 3.33049C11.5292 2.72052 10.8063 2.23659 10.0104 1.9064C9.21445 1.57621 8.36124 1.40625 7.49956 1.40625C6.63789 1.40625 5.78467 1.57621 4.98877 1.9064C4.19286 2.23659 3.46995 2.72052 2.86133 3.33049Z" fill="#161616"/>
<path d="M7.49961 3.75002C6.94563 3.74967 6.39704 3.85878 5.88536 4.07108C5.37368 4.28339 4.90899 4.59471 4.51798 4.98715L5.18047 5.64973C5.48477 5.34472 5.84624 5.10273 6.2442 4.93762C6.64215 4.77252 7.06876 4.68753 7.49961 4.68753C7.93046 4.68753 8.35707 4.77252 8.75502 4.93762C9.15298 5.10273 9.51445 5.34472 9.81875 5.64973L10.4813 4.98715C10.0903 4.59471 9.6256 4.2834 9.1139 4.07109C8.6022 3.85879 8.0536 3.74968 7.49961 3.75002Z" fill="#161616"/>
</svg>
